<svg xmlns="http://www.w3.org/2000/svg" viewBox="0 0 403.94 413.33"><defs><style>.cls-1,.cls-7{fill:none;stroke-miterlimit:10;}.cls-1{stroke:#daa521;}.cls-2{font-size:11.43px;}.cls-14,.cls-2{fill:#706f6f;}.cls-10,.cls-11,.cls-12,.cls-14,.cls-2,.cls-8,.cls-9{font-family:BodoniBT-BookItalic, Bodoni Bk BT;font-style:italic;}.cls-3{letter-spacing:-0.11em;}.cls-4{font-size:39.04px;fill:#daa521;font-family:ChocolateRegular, Chocolate;}.cls-5{letter-spacing:-0.02em;}.cls-6{letter-spacing:-0.13em;}.cls-7{stroke:#706f6f;stroke-width:0.25px;}.cls-8{font-size:7.26px;}.cls-10,.cls-11,.cls-12,.cls-8,.cls-9{fill:#3a5ba6;}.cls-9{font-size:20.83px;}.cls-10{font-size:5.44px;}.cls-11{font-size:22.48px;}.cls-12{font-size:13.14px;}.cls-13{letter-spacing:-0.02em;}.cls-14{font-size:12.57px;}.cls-15{letter-spacing:-0.02em;}.cls-16{letter-spacing:-0.02em;}.cls-17{letter-spacing:-0.05em;}</style></defs><g id="Capa_2" data-name="Capa 2"><g id="Capa_1-2" data-name="Capa 1"><polyline class="cls-1" points="240.6 401.63 403.3 112.81 280.25 2.43"/><polyline class="cls-1" points="129.13 0.36 0.63 123.89 167.04 413.08"/><polyline class="cls-1" points="271.15 393.1 401.26 268.62 253.31 13.49"/><polyline class="cls-1" points="161.1 0.81 2.67 280.88 146.09 407.89"/><text class="cls-2" transform="translate(169.35 359.36)"><tspan class="cls-3">V</tspan><tspan x="4.94" y="0">alle de Bravo,</tspan><tspan x="-7.02" y="11.43">Estado de México.</tspan></text><text class="cls-4" transform="translate(110.92 157.01)">Alejandra<tspan x="30.49" y="46.85">&amp; Iván</tspan></text><text class="cls-2" transform="translate(149.09 43.54)">La espera ha sido la<tspan class="cls-5" x="88.01" y="0">r</tspan><tspan x="91.57" y="0">ga,</tspan><tspan x="27.42" y="11.43">pero no hay</tspan><tspan x="1.55" y="22.86">plazo que no se cumpla.</tspan><tspan x="14.47" y="34.29">Esperamos contar</tspan><tspan x="-16.54" y="45.71">con tu presencia en este día, tan</tspan><tspan x="-3.96" y="57.14">importante para nosotros. </tspan></text><text class="cls-2" transform="translate(137.39 231.86)"><tspan class="cls-6">T</tspan><tspan x="4.78" y="0">enemos el gusto de invitarlos</tspan><tspan x="21.64" y="11.43">a nuestra boda civil</tspan></text><line class="cls-7" x1="120.07" y1="248.37" x2="283.86" y2="248.37"/><line class="cls-7" x1="131.5" y1="283.37" x2="272.43" y2="283.37"/><text class="cls-8" transform="translate(141.71 257.22)">SÁBADO</text><text class="cls-9" transform="translate(144.19 272.93)">22</text><text class="cls-10" transform="translate(142.11 279.38)">DE ENERO</text><line class="cls-7" x1="175.49" y1="250.65" x2="175.49" y2="280.82"/><line class="cls-7" x1="228.06" y1="250.65" x2="228.06" y2="280.82"/><text class="cls-11" transform="translate(179.25 272.2)">2022</text><text class="cls-12" transform="translate(232.18 261.63)">13:30<tspan x="2" y="15.76">HR</tspan><tspan class="cls-13" x="18.65" y="15.76">S</tspan><tspan x="24.87" y="15.76">.</tspan></text><text class="cls-14" transform="translate(157.22 299.69)"><tspan class="cls-15">J</tspan><tspan x="4.79" y="0">ARDÍN HRI</tspan><tspan class="cls-16" x="63" y="0">D</tspan><tspan class="cls-17" x="71.02" y="0">AY</tspan><tspan x="83.4" y="0">A</tspan></text><text class="cls-2" transform="translate(181.4 311.98)">Carretera<tspan x="-40.89" y="11.43">El Arco - Colorines Km. 3.5,</tspan><tspan x="-26.74" y="22.86">San Gaspar del Lago.</tspan></text><line class="cls-7" x1="142.94" y1="344.28" x2="260.99" y2="344.28"/></g></g></svg>