<svg xmlns="http://www.w3.org/2000/svg" viewBox="0 0 410.88 497.4"><defs><style>.cls-1{fill:none;stroke:#1d1d1b;stroke-linecap:round;stroke-linejoin:round;stroke-width:6.16px;}</style></defs><g id="Capa_2" data-name="Capa 2"><g id="Logo6"><polygon class="cls-1" points="203.08 393.26 403.08 339.15 5.47 339.15 203.08 393.26"/><polygon class="cls-1" points="203.08 285.04 403.08 339.15 5.47 339.15 203.08 285.04"/><polyline class="cls-1" points="203.08 88.33 403.08 339.15 203.08 285.04 203.08 88.33"/><polyline class="cls-1" points="403.08 339.15 203.08 88.33 403.08 142.45 403.08 339.15"/><polyline class="cls-1" points="3.08 339.15 203.08 88.33 3.08 142.45 3.08 339.15"/><polyline class="cls-1" points="203.08 88.33 3.08 339.15 203.08 285.04 203.08 88.33"/><polygon class="cls-1" points="3.08 142.45 3.08 3.08 150.49 102.56 3.08 142.45"/><polygon class="cls-1" points="403.08 142.45 403.08 3.08 255.67 102.56 403.08 142.45"/><path d="M69.63,478.75A30.66,30.66,0,0,1,53.38,495a29.59,29.59,0,0,1-11.87,2.4A30.06,30.06,0,0,1,29.58,495a30.5,30.5,0,0,1-16.31-16.25,29.59,29.59,0,0,1-2.39-11.87V440a29.62,29.62,0,0,1,2.39-11.87,30.59,30.59,0,0,1,16.31-16.25,30.06,30.06,0,0,1,11.93-2.4,30.2,30.2,0,0,1,26.43,15.32l-5.27,3a24.07,24.07,0,0,0-21.16-12.28,23.92,23.92,0,0,0-9.59,1.93,24.27,24.27,0,0,0-7.71,5.26A25.42,25.42,0,0,0,19,430.52,23.45,23.45,0,0,0,17.07,440v26.89A23.45,23.45,0,0,0,19,476.35a25.3,25.3,0,0,0,5.21,7.78,24.27,24.27,0,0,0,7.71,5.26,23.75,23.75,0,0,0,9.59,1.93A23.45,23.45,0,0,0,51,489.39a24.75,24.75,0,0,0,13-13A23.62,23.62,0,0,0,66,466.88v-3.51H46.3v-6.08H72v9.59A29.59,29.59,0,0,1,69.63,478.75Z"/><path d="M146.51,466.88a29.59,29.59,0,0,1-2.4,11.87A30.66,30.66,0,0,1,127.86,495,29.59,29.59,0,0,1,116,497.4a30,30,0,0,1-11.92-2.4,30.65,30.65,0,0,1-9.77-6.54,31,31,0,0,1-6.55-9.71,29.59,29.59,0,0,1-2.39-11.87V440a29.62,29.62,0,0,1,2.39-11.87,30.57,30.57,0,0,1,16.32-16.25,30,30,0,0,1,11.92-2.4,29.59,29.59,0,0,1,11.87,2.4,30.75,30.75,0,0,1,16.25,16.25,29.63,29.63,0,0,1,2.4,11.87ZM140.43,440a23.45,23.45,0,0,0-1.93-9.47,24.75,24.75,0,0,0-13-13,23.62,23.62,0,0,0-9.47-1.93,23.92,23.92,0,0,0-9.59,1.93,24.27,24.27,0,0,0-7.71,5.26,25.42,25.42,0,0,0-5.21,7.78A23.62,23.62,0,0,0,91.55,440v26.89a23.62,23.62,0,0,0,1.93,9.47,25.3,25.3,0,0,0,5.21,7.78,24.27,24.27,0,0,0,7.71,5.26,23.75,23.75,0,0,0,9.59,1.93,23.45,23.45,0,0,0,9.47-1.93,24.75,24.75,0,0,0,13-13,23.45,23.45,0,0,0,1.93-9.47Z"/><path d="M158.08,410.52h28.3a22.1,22.1,0,0,1,9,1.82,23.1,23.1,0,0,1,12.16,12.22,23.36,23.36,0,0,1,.4,17,21.93,21.93,0,0,1-4,6.78,23.3,23.3,0,0,1-6,5,22.61,22.61,0,0,1-7.43,2.69h.35L208,496.11h-6.66l-17.07-39.63H164.16v39.63h-6.08Zm6.08,39.76h22.22a16.65,16.65,0,0,0,11.87-4.85,17.36,17.36,0,0,0,3.62-5.32,16.56,16.56,0,0,0,0-13.1,17.22,17.22,0,0,0-8.94-8.94,16,16,0,0,0-6.55-1.35H164.16Z"/><path d="M219.7,496.23V410.64H248a30.39,30.39,0,0,1,21.69,9,31.72,31.72,0,0,1,6.55,9.76,29.76,29.76,0,0,1,2.39,11.87v24.43a29.76,29.76,0,0,1-2.39,11.87,31.14,31.14,0,0,1-6.55,9.71,30.71,30.71,0,0,1-9.76,6.54,30.06,30.06,0,0,1-11.93,2.4Zm6.08-6.08H248A24.33,24.33,0,0,0,265.3,483a25.3,25.3,0,0,0,5.21-7.78,23.59,23.59,0,0,0,1.93-9.47V441.28a24.05,24.05,0,0,0-1.93-9.53,24.09,24.09,0,0,0-13-13,23.88,23.88,0,0,0-9.53-1.93H225.78Z"/><path d="M334.87,410.52v6.2H308.33a16,16,0,0,0-6.55,1.35,17.36,17.36,0,0,0-5.32,3.62A16.41,16.41,0,0,0,292.9,427a16.67,16.67,0,0,0,15.43,23.27h7.72a22.23,22.23,0,0,1,8.89,1.81,22.87,22.87,0,0,1,12.21,12.22,22.74,22.74,0,0,1,0,17.83,23,23,0,0,1-12.21,12.16,22.23,22.23,0,0,1-8.89,1.81H289.51V490h26.54a16.54,16.54,0,0,0,11.87-4.85,17,17,0,0,0,3.62-5.38,16.3,16.3,0,0,0,1.35-6.6,16,16,0,0,0-1.35-6.55,17.24,17.24,0,0,0-3.62-5.32,16.54,16.54,0,0,0-11.87-4.85h-7.72a22,22,0,0,1-8.94-1.82,23.17,23.17,0,0,1-12.16-12.16,22,22,0,0,1-1.82-8.94,22.45,22.45,0,0,1,1.82-9,22.88,22.88,0,0,1,4.91-7.31,23.23,23.23,0,0,1,7.25-4.91,22,22,0,0,1,8.94-1.82Z"/><path d="M402.87,430.64a24.75,24.75,0,0,0-13-13,23.45,23.45,0,0,0-9.47-1.93,23.75,23.75,0,0,0-9.59,1.93,24.26,24.26,0,0,0-7.72,5.26,25.45,25.45,0,0,0-5.2,7.78,23.45,23.45,0,0,0-1.93,9.47v56h-6.08v-56a29.59,29.59,0,0,1,2.4-11.87A30.66,30.66,0,0,1,368.49,412a30.55,30.55,0,0,1,23.74,0,30.66,30.66,0,0,1,16.25,16.25,29.59,29.59,0,0,1,2.4,11.87v56H404.8v-56A23.62,23.62,0,0,0,402.87,430.64Z"/></g></g></svg>