<svg xmlns="http://www.w3.org/2000/svg" viewBox="0 0 92.08 95.15"><defs><style>.cls-1{fill:#bdbcbc;}.cls-2{fill:#82368c;}</style></defs><g id="Capa_2" data-name="Capa 2"><g id="Capa_3" data-name="Capa 3"><path class="cls-1" d="M91.77,40.89c-1.84,7.57-17.83,6.27-29.28,4.33,7-6.38,11.56-14.81,4.11-14.92-5,0-9.84,5.08-13.73,8.43.44-1.19,1-2.27,2.16-4.86.26-.51-1.29-.43-1.51,0-.52,1.05-1.05,2-1.58,3-3.79,4.11-10,9.85-13.33,11.9-.42.27-.81.38-1,.27a.24.24,0,0,1-.12-.23c0-1.57,5.24-10.74,8.17-15a.18.18,0,0,0-.07-.24,1.59,1.59,0,0,0-1.5.22A24,24,0,0,0,41.71,37s-1,1.46-2.09,3.18C36,43.33,31,48.79,25.61,49c-3-.32,2.48-8.64,7.56-13.72,2.06.21,4,.54,5.62-.65s2.49-3.35,0-4.21c-2.16-.55-5.4,1-8.75,3.78-11.89-2-27.55-3.24-29.93,4-.22.55,0,.76.22.65,1.83-7.56,17.82-6.26,29.28-4.32-7,6.38-11.56,14.8-4.11,14.91,4.87,0,9.63-4.86,13.48-8.21a33,33,0,0,0-1.79,3.24c-1.08,2.36-1.35,3.89-.62,4.62a1.2,1.2,0,0,0,.89.37A2.59,2.59,0,0,0,38.72,49c3.22-2,9-7.28,12.71-11.22-.85,1.52-1.72,3-2.66,4.6C32.45,57.32,10,82.17,7.28,91.14c-.55,1.73-.44,3,.21,3.46,10.27,4.21,24.31-16.43,35-35.88,3.67-6.37,7.13-13.29,9.94-19.12,3.67-3.14,8.64-8.65,14-8.86,3,.32-2.49,8.64-7.57,13.72-2.05-.22-4-.54-5.61.65s-2.49,3.35,0,4.21c2.16.54,5.4-1,8.75-3.78,11.88,1.94,27.55,3.24,29.93-4C92.2,41,92,40.79,91.77,40.89ZM37.71,31.6c2.38-1,2.59,1.3,1,2.6-1.4,1.08-3.24.86-5.07.65A18.74,18.74,0,0,1,37.71,31.6Zm1.12,26.91C27.05,76.12,12.57,95,7.92,94.27c-.64-.43-.64-1.62-.1-3.24,2.59-8.75,24.2-32.74,40.3-47.54C45.42,48.13,42.18,53.43,38.83,58.51ZM54.39,48.13c-2.38,1-2.6-1.29-1-2.59,1.41-1.08,3.25-.86,5.08-.65A19.2,19.2,0,0,1,54.39,48.13Z"/><path class="cls-2" d="M4.11,44.82a.3.3,0,0,1,.2.08.28.28,0,0,1,.07.19l0,.86h0a2.16,2.16,0,0,1-.2.84,2.08,2.08,0,0,1-.49.68,2,2,0,0,1-.7.44,2,2,0,0,1-.85.15,2.21,2.21,0,0,1-.85-.2,2.22,2.22,0,0,1-.67-.5,2.3,2.3,0,0,1-.44-.7A2.25,2.25,0,0,1,0,45.8l0-.86a.23.23,0,0,1,.09-.18.22.22,0,0,1,.19-.07Zm-3.93,1a1.45,1.45,0,0,0,.14.64,1.72,1.72,0,0,0,.4.54,2.55,2.55,0,0,0,.62.37,2.45,2.45,0,0,0,.77.15,2.29,2.29,0,0,0,.79-.1,2.15,2.15,0,0,0,.64-.33,1.74,1.74,0,0,0,.44-.5A1.32,1.32,0,0,0,4.17,46l0-.59h-.1l-3.8-.13H.21Z"/><path class="cls-2" d="M4.3,51a.23.23,0,0,1,.09.18.23.23,0,0,1-.06.2.27.27,0,0,1-.19.1l-3.8.28a.23.23,0,0,1-.19-.06.23.23,0,0,1-.09-.19.25.25,0,0,1,.06-.2.31.31,0,0,1,.18-.09l3.8-.29A.29.29,0,0,1,4.3,51Z"/><path class="cls-2" d="M1.81,58.05a.91.91,0,0,1-.46-.16A1.71,1.71,0,0,1,1,57.53a1.83,1.83,0,0,1-.24-.46,3.14,3.14,0,0,1-.13-.45,2.58,2.58,0,0,1,0-.73,2.06,2.06,0,0,1,0-.28c0-.12.06-.24.1-.36a1.81,1.81,0,0,1,.13-.31c.06-.1.11-.15.16-.16a.16.16,0,0,1,.1,0,.16.16,0,0,1,0,.08.18.18,0,0,1,0,.09,2.65,2.65,0,0,0-.31.78,2.11,2.11,0,0,0,0,.83,2.37,2.37,0,0,0,.09.36.87.87,0,0,0,.18.31.63.63,0,0,0,.28.2.85.85,0,0,0,.43,0h.09l-.09,0a.74.74,0,0,0,.28-.14.79.79,0,0,0,.17-.2,1.15,1.15,0,0,0,.12-.25c0-.09,0-.18.08-.27s.08-.4.12-.63a3.65,3.65,0,0,1,.17-.67,1.77,1.77,0,0,1,.3-.56.83.83,0,0,1,.52-.3,1.15,1.15,0,0,1,.59,0,1.19,1.19,0,0,1,.43.3,1.7,1.7,0,0,1,.29.47,3,3,0,0,1,.16.56c0,.1,0,.23,0,.39a4,4,0,0,1,0,.49,1.67,1.67,0,0,1-.07.42c0,.12-.09.19-.17.2a.1.1,0,0,1-.09,0,.16.16,0,0,1-.06-.08.22.22,0,0,1,0-.08,1.83,1.83,0,0,0,.15-.59,2.36,2.36,0,0,0,0-.7,2.13,2.13,0,0,0-.11-.33.92.92,0,0,0-.18-.3A.79.79,0,0,0,4.3,55,.55.55,0,0,0,4,55a.91.91,0,0,0-.42.2.8.8,0,0,0-.22.37c0,.16-.08.34-.12.53s-.07.4-.11.61a2.7,2.7,0,0,1-.17.59,1.58,1.58,0,0,1-.33.48A1,1,0,0,1,2,58,1,1,0,0,1,1.81,58.05Z"/><path class="cls-2" d="M5.91,60.13a.27.27,0,0,1,.13.15H6l.69,2.06a.08.08,0,0,1-.06.12s-.09,0-.11-.06L6,60.6l-.08,0-1.72.58.47,1.41c0,.05,0,.09-.06.11a.09.09,0,0,1-.12,0L4,61.27l-1.71.57-.08,0,.6,1.8a.08.08,0,0,1-.06.12c-.06,0-.1,0-.11-.06l-.7-2.07a.28.28,0,0,1,0-.2.22.22,0,0,1,.15-.13l1.72-.58L4,60.69l1.71-.57A.28.28,0,0,1,5.91,60.13Z"/><path class="cls-2" d="M7.27,65.43,4,67a.09.09,0,0,1-.13,0,.08.08,0,0,1,.05-.12l3.56-1.76a.26.26,0,0,1,.28,0,.23.23,0,0,1,.11.16.31.31,0,0,1,0,.21L5.74,69.36,9,67.75c.06,0,.1,0,.12,0s0,.09,0,.12h0L5.51,69.67h0a.27.27,0,0,1-.26,0,.29.29,0,0,1-.08-.37Zm1.36-.13a.7.7,0,0,1,.29.08.89.89,0,0,1,.24.18,1.1,1.1,0,0,1,.15.26,1,1,0,0,1,0,.3.88.88,0,0,0,.09.47.35.35,0,0,0,.3.21l0,0s0,.07,0,.08,0,0,0,0a0,0,0,0,0,0,0,.75.75,0,0,1-.3-.09.66.66,0,0,1-.23-.18,1,1,0,0,1-.15-.25.78.78,0,0,1,0-.3.81.81,0,0,0-.1-.48.39.39,0,0,0-.3-.21s0,0,0,0,0-.05,0-.06Z"/><path class="cls-2" d="M11.88,72.13a2.1,2.1,0,0,1,.36.81,2.27,2.27,0,0,1,0,.86,2.15,2.15,0,0,1-.3.81,2.23,2.23,0,0,1-1.43,1,2.26,2.26,0,0,1-.86,0,2.33,2.33,0,0,1-.81-.3,2.35,2.35,0,0,1-.65-.61,2.15,2.15,0,0,1-.36-.82,2.26,2.26,0,0,1,0-.86,2.18,2.18,0,0,1,.31-.8,2,2,0,0,1,.61-.65,2.18,2.18,0,0,1,1.67-.39,2.16,2.16,0,0,1,.81.31A2.21,2.21,0,0,1,11.88,72.13Zm-.15.11a1.34,1.34,0,0,0-.51-.44,1.56,1.56,0,0,0-.67-.18,2.18,2.18,0,0,0-.75.08,2.45,2.45,0,0,0-.73.35,2.66,2.66,0,0,0-.58.58,2.06,2.06,0,0,0-.32.67,2,2,0,0,0-.05.69,1.42,1.42,0,0,0,.76,1.07,1.9,1.9,0,0,0,.67.18,2.1,2.1,0,0,0,.74-.08,2.34,2.34,0,0,0,.73-.35,2.46,2.46,0,0,0,.58-.58,2.16,2.16,0,0,0,.32-.67,1.87,1.87,0,0,0,.06-.7A1.45,1.45,0,0,0,11.73,72.24Z"/><path class="cls-2" d="M32.82,87.91a.09.09,0,0,1,0,.12.12.12,0,0,1,0,0l-2.12,1.2L30,91.2a.23.23,0,0,1-.14.15.3.3,0,0,1-.21,0,.29.29,0,0,1-.15-.14.26.26,0,0,1,0-.21l.64-1.72-.78-2.22a.25.25,0,0,1,0-.17.26.26,0,0,1,.15-.16.27.27,0,0,1,.2,0,.28.28,0,0,1,.16.16h0l.78,2.2,2.11-1.19A.08.08,0,0,1,32.82,87.91Z"/><path class="cls-2" d="M40.66,89.69a1.28,1.28,0,0,1,.55.18,1.47,1.47,0,0,1,.42.37,1.74,1.74,0,0,1,.25.49,1.61,1.61,0,0,1,0,.58,1.56,1.56,0,0,1-.18.54,1.37,1.37,0,0,1-.37.42,1.29,1.29,0,0,1-.49.26,1.61,1.61,0,0,1-.58,0l-1-.13-.11.91,0,.26a.29.29,0,0,1-.11.18.26.26,0,0,1-.2,0,.26.26,0,0,1-.23-.3l.47-3.77a.32.32,0,0,1,.1-.19.29.29,0,0,1,.2,0Zm-.33,2.7a.7.7,0,0,0,.35-.06A.9.9,0,0,0,41,92.1a1.47,1.47,0,0,0,.25-.38,1.76,1.76,0,0,0,.12-1,1.59,1.59,0,0,0-.14-.42A1,1,0,0,0,41,90a.61.61,0,0,0-.33-.14l-1-.13v.09l-.3,2.43Z"/><path class="cls-2" d="M45.84,90.23,47.16,94h0v.09a.27.27,0,0,1-.08.19.22.22,0,0,1-.19.07.24.24,0,0,1-.16-.05.26.26,0,0,1-.1-.13l-.44-1.3-1.71,0L44,94.3a.08.08,0,0,1-.08.06.09.09,0,0,1-.09-.1s0,0,0,0h0l1.53-4a.31.31,0,0,1,.1-.15.25.25,0,0,1,.16-.06.21.21,0,0,1,.16.06.31.31,0,0,1,.1.13Zm-.46.34-.82,2.15,1.57,0Z"/><path class="cls-2" d="M51.5,89.69a1.61,1.61,0,0,1,.58,0,1.34,1.34,0,0,1,.49.25,1.37,1.37,0,0,1,.37.42,1.39,1.39,0,0,1,.19.54,1.61,1.61,0,0,1,0,.58,1.38,1.38,0,0,1-.25.5,1.45,1.45,0,0,1-.41.37,1.38,1.38,0,0,1-.54.18l-1,.14.12.9,0,.26a.28.28,0,0,1-.05.2.29.29,0,0,1-.19.11.23.23,0,0,1-.19-.06.25.25,0,0,1-.11-.17L50,90.17a.28.28,0,0,1,.23-.31Zm.36,2.7a.69.69,0,0,0,.33-.14,1.1,1.1,0,0,0,.25-.31,1.23,1.23,0,0,0,.14-.42,1.73,1.73,0,0,0,0-.51,1.56,1.56,0,0,0-.14-.48,1.21,1.21,0,0,0-.25-.37.9.9,0,0,0-.32-.23.6.6,0,0,0-.35-.05l-1,.13v.09l.32,2.43Z"/><path class="cls-2" d="M55.69,89a.29.29,0,0,1,.16-.13h0l2.1-.57a.09.09,0,0,1,.11.07c0,.06,0,.1-.07.11l-1.83.5,0,.09.47,1.75,1.44-.39s.09,0,.1.07a.08.08,0,0,1-.05.11L56.71,91l.48,1.75,0,.08,1.84-.49c.05,0,.09,0,.11.06s0,.1-.07.11l-2.1.57a.27.27,0,0,1-.2,0,.26.26,0,0,1-.13-.16l-.47-1.75,0-.18-.47-1.75A.26.26,0,0,1,55.69,89Z"/><path class="cls-2" d="M64.52,90.48s0,.09,0,.12l-1.67.69-.16.06-.09,0h0a.23.23,0,0,1-.2,0,.29.29,0,0,1-.15-.14l-1.45-3.52a.28.28,0,0,1,0-.22.29.29,0,0,1,.15-.14.26.26,0,0,1,.21,0,.28.28,0,0,1,.15.15l1.28,3.12.17.4,0,.08,1.67-.69A.08.08,0,0,1,64.52,90.48Z"/><path class="cls-2" d="M65.47,85.41a.23.23,0,0,1,.13-.16h0l1.89-1.07c.06,0,.1,0,.13,0s0,.09,0,.12l-1.65.94,0,.08.9,1.58,1.29-.74a.09.09,0,0,1,.12,0q0,.09,0,.12L67,87.09l.89,1.57,0,.08,1.66-.94a.08.08,0,0,1,.12,0c0,.06,0,.1,0,.13L67.74,89a.24.24,0,0,1-.2,0,.26.26,0,0,1-.16-.13l-.9-1.57-.09-.16-.89-1.58A.26.26,0,0,1,65.47,85.41Z"/><path class="cls-2" d="M70.05,82.89a.26.26,0,0,1-.06-.21.25.25,0,0,1,.11-.17l1.19-.9a1.18,1.18,0,0,1,.45-.22,1.37,1.37,0,0,1,.49,0,1.33,1.33,0,0,1,.46.16,1.51,1.51,0,0,1,.38.33,1.36,1.36,0,0,1,.2.4,1.32,1.32,0,0,1,0,.44,1.29,1.29,0,0,1-.1.42,1.1,1.1,0,0,1-.23.37l.11,0,1.42.61a.24.24,0,0,1,.1.08.28.28,0,0,1,0,.2.22.22,0,0,1-.11.17.27.27,0,0,1-.26,0h0l-1.77-.76-.66.51.9,1.19,0,0a.28.28,0,0,1,0,.2.28.28,0,0,1-.31.23.32.32,0,0,1-.18-.1l-.93-1.24-.11-.14Zm1.68,1.33,1-.73a.46.46,0,0,0,.17-.24.72.72,0,0,0,.05-.33,1.33,1.33,0,0,0-.09-.37,1.74,1.74,0,0,0-.21-.37,1.42,1.42,0,0,0-.3-.3A1.35,1.35,0,0,0,72,81.7a.74.74,0,0,0-.32,0,.53.53,0,0,0-.28.1l-1,.74,0,.07Z"/><path class="cls-2" d="M74.13,78.67a.18.18,0,0,1-.16,0,.24.24,0,0,1-.1-.13l-.1-.44a.22.22,0,0,1,0-.16.2.2,0,0,1,.13-.09.2.2,0,0,1,.17,0,.2.2,0,0,1,.09.13l.1.44a.16.16,0,0,1,0,.16A.18.18,0,0,1,74.13,78.67Zm.31.42a.26.26,0,0,1,.08-.19.25.25,0,0,1,.2-.07.29.29,0,0,1,.19.08l2.61,2.78a.26.26,0,0,1,.07.19.34.34,0,0,1-.09.19.23.23,0,0,1-.19.07.26.26,0,0,1-.19-.08l-2.61-2.77A.26.26,0,0,1,74.44,79.09Z"/><path class="cls-2" d="M78.15,75.38l3.78,1.41h0l.08,0a.31.31,0,0,1,.09.18.24.24,0,0,1-.06.2.24.24,0,0,1-.15.09.22.22,0,0,1-.16,0l-1.28-.48-1.11,1.3.74,1.31s0,.06,0,.1-.08,0-.13,0a0,0,0,0,0,0,0h0l-2.1-3.72a.25.25,0,0,1-.06-.17.29.29,0,0,1,.07-.16.22.22,0,0,1,.14-.09.29.29,0,0,1,.16,0Zm0,.58,1.13,2,1-1.2Z"/><path class="cls-2" d="M82.56,68.94a.23.23,0,0,1,0-.2h0l1-1.93s.07-.06.13,0a.08.08,0,0,1,0,.12l-.89,1.69.09,0,1.6.84.69-1.32a.08.08,0,0,1,.12,0s.07.07,0,.12l-.69,1.32,1.61.84a.24.24,0,0,1,.13.15.31.31,0,0,1,0,.21.26.26,0,0,1-.16.13.23.23,0,0,1-.2,0L84.46,70l-.16-.09-1.61-.84A.26.26,0,0,1,82.56,68.94Z"/><path class="cls-2" d="M84.85,64.19a.26.26,0,0,1,0-.21.29.29,0,0,1,.14-.15.28.28,0,0,1,.22,0l3.53,1.41a.29.29,0,0,1,.15.14.28.28,0,0,1,0,.22.27.27,0,0,1-.14.14.26.26,0,0,1-.21,0L85,64.33A.23.23,0,0,1,84.85,64.19Z"/><path class="cls-2" d="M86.58,61.1l3.52,1c.05,0,.08,0,.06.11s0,.08-.11.07l-3.84-1.05A.27.27,0,0,1,86,60.8a.36.36,0,0,1,.16-.14l4.15-1.48-3.51-1a.08.08,0,0,1-.07-.1c0-.06,0-.08.11-.06h0l3.84,1.05h0a.27.27,0,0,1,.18.19.28.28,0,0,1,0,.2.29.29,0,0,1-.16.13Z"/><path class="cls-2" d="M87.8,53.33l3.93-.91h.1a.23.23,0,0,1,.18.09.25.25,0,0,1,.06.2.29.29,0,0,1-.07.16.28.28,0,0,1-.15.08l-1.33.31L90.31,55l1.34.67a.09.09,0,0,1,0,.09c0,.06,0,.09-.1.08h0l-3.8-1.95a.22.22,0,0,1-.14-.11.25.25,0,0,1,0-.17.26.26,0,0,1,.07-.15.29.29,0,0,1,.14-.08Zm.3.49,2.05,1,.19-1.57Z"/><path class="cls-2" d="M7.13,19.35l6.3,1.92h0a.41.41,0,0,1,.13.08.43.43,0,0,1,.17.28.4.4,0,0,1-.09.33.44.44,0,0,1-.22.16.42.42,0,0,1-.27,0L11,21.46,9.35,23.7l1.34,2.05a.12.12,0,0,1,0,.16.13.13,0,0,1-.21,0s0,0,0,0h0L6.65,20a.4.4,0,0,1-.11-.27.46.46,0,0,1,.31-.43.61.61,0,0,1,.27,0Zm0,.93,2,3.16,1.55-2.06Z"/><path class="cls-2" d="M11.58,14.32a.46.46,0,0,1-.11-.33.39.39,0,0,1,.14-.3l1.83-1.61a2,2,0,0,1,.71-.42,2.1,2.1,0,0,1,.78-.1,1.91,1.91,0,0,1,.77.2,2.11,2.11,0,0,1,.66.49,1.86,1.86,0,0,1,.38.63,2.13,2.13,0,0,1,.14.7,2.37,2.37,0,0,1-.1.7,2,2,0,0,1-.34.63l.19.05,2.38.8a.52.52,0,0,1,.17.13.4.4,0,0,1,.11.31.4.4,0,0,1-.15.31.45.45,0,0,1-.42.1l0,0-3-1-1,.91,1.62,1.82.05.06a.42.42,0,0,1,.11.32.48.48,0,0,1-.15.31.46.46,0,0,1-.32.11.44.44,0,0,1-.3-.15L14,17.08l-.2-.22Zm2.91,1.95L16,15a.81.81,0,0,0,.26-.41,1.17,1.17,0,0,0,0-.53,2,2,0,0,0-.19-.59,2.32,2.32,0,0,0-.38-.58,2.76,2.76,0,0,0-.53-.45,2.54,2.54,0,0,0-.56-.26,1.44,1.44,0,0,0-.54,0,.9.9,0,0,0-.44.21l-1.49,1.32.1.11Z"/><path class="cls-2" d="M20,7.55l-1.71,1a.13.13,0,0,1-.2-.05.14.14,0,0,1,.05-.21l1.7-1,.76-.46,1.71-1h0a.13.13,0,0,1,.2.06c.06.08,0,.15,0,.2h0l-1.7,1L24,12.55a.45.45,0,0,1,.06.32.44.44,0,0,1-.55.33.44.44,0,0,1-.27-.2Z"/><path class="cls-2" d="M26.6,3.85a.42.42,0,0,1,.24-.23h0l3.33-1.23a.13.13,0,0,1,.19.09.12.12,0,0,1-.09.19L27.36,3.75l.06.14,1,2.77,2.27-.83a.13.13,0,0,1,.18.09c0,.1,0,.16-.07.19l-2.28.83,1,2.78.05.13,2.91-1.07a.13.13,0,0,1,.2.09.14.14,0,0,1-.09.19l-3.34,1.23a.45.45,0,0,1-.34,0,.4.4,0,0,1-.22-.24l-1-2.78L27.6,7l-1-2.78A.4.4,0,0,1,26.6,3.85Z"/><path class="cls-2" d="M44.38.56h-.07A2.82,2.82,0,0,0,43.8.36,2.62,2.62,0,0,0,43.23.3a1.23,1.23,0,0,0-.93.42,1.31,1.31,0,0,0-.36,1,1.31,1.31,0,0,0,.4,1,1.24,1.24,0,0,0,.95.37.13.13,0,0,1,.15.15c0,.1,0,.15-.14.15a1.59,1.59,0,0,0-.69.16,2,2,0,0,0-.55.39,2,2,0,0,0-.36.58,2,2,0,0,0-.12.69,2,2,0,0,0,.15.7,2,2,0,0,0,.39.56,1.9,1.9,0,0,0,.57.38,1.62,1.62,0,0,0,.69.12,2.63,2.63,0,0,0,.86-.16,2.31,2.31,0,0,0,.7-.41,1.74,1.74,0,0,0,.47-.58,1.31,1.31,0,0,0,.16-.7.49.49,0,0,0,0-.13l-.3-.07A1.31,1.31,0,0,1,45,4.72a2.29,2.29,0,0,0-.67-.25,1.74,1.74,0,0,0-.64,0,1.38,1.38,0,0,0-.55.19.87.87,0,0,0-.37.39.12.12,0,0,1-.11.07A.1.1,0,0,1,42.52,5a.19.19,0,0,1,0-.08,2,2,0,0,1,.52-.6,2,2,0,0,1,.7-.36,2,2,0,0,1,.77-.07,1.82,1.82,0,0,1,.77.24,1.73,1.73,0,0,0,.44.17h0a1.28,1.28,0,0,0,.7,0A.72.72,0,0,0,46.93,4s0-.06.09-.06a.1.1,0,0,1,.11.11.07.07,0,0,1,0,0,1.4,1.4,0,0,1-.5.55A1.69,1.69,0,0,1,46,4.9V5a1.64,1.64,0,0,1-.18.82,2.23,2.23,0,0,1-.54.69,2.85,2.85,0,0,1-.82.46,3.27,3.27,0,0,1-2,0,2.72,2.72,0,0,1-.85-.43A2.11,2.11,0,0,1,40.93,6a1.75,1.75,0,0,1-.22-.81,1.78,1.78,0,0,1,.44-1.21,2.62,2.62,0,0,1,1.2-.78,2,2,0,0,1-.92-.57,1.36,1.36,0,0,1-.37-.89,1.29,1.29,0,0,1,.16-.64,1.68,1.68,0,0,1,.46-.54,2.39,2.39,0,0,1,.69-.37A3,3,0,0,1,43.22,0a3.24,3.24,0,0,1,.64.06,2.84,2.84,0,0,1,.58.2.13.13,0,0,1,.08.13C44.53.5,44.48.56,44.38.56Z"/><path class="cls-2" d="M59.94,2.19a2.21,2.21,0,0,1,.82.46,2.26,2.26,0,0,1,.56.71,2.4,2.4,0,0,1,.24.88,2.28,2.28,0,0,1-.1.93A2.45,2.45,0,0,1,61,6a2.41,2.41,0,0,1-.71.56,2.37,2.37,0,0,1-.87.26,2.29,2.29,0,0,1-.93-.11L56.9,6.19l-.45,1.42L56.31,8a.4.4,0,0,1-.21.25.43.43,0,0,1-.35,0,.42.42,0,0,1-.25-.22.39.39,0,0,1,0-.33l1.91-5.92a.41.41,0,0,1,.22-.26.39.39,0,0,1,.33,0ZM58.58,6.42a1.07,1.07,0,0,0,.59,0,1.6,1.6,0,0,0,.58-.27,2.12,2.12,0,0,0,.5-.53,2.49,2.49,0,0,0,.36-.73,2.54,2.54,0,0,0,.14-.8,2.12,2.12,0,0,0-.1-.73,1.74,1.74,0,0,0-.31-.57,1.07,1.07,0,0,0-.49-.33L58.27,2l-.05.15L57,5.91Z"/><path class="cls-2" d="M67.72,5.77l-.88,6.53h0l-.06.14a.42.42,0,0,1-.25.22.41.41,0,0,1-.34,0,.48.48,0,0,1-.2-.2.39.39,0,0,1,0-.26L66.26,10,63.79,8.67,62,10.32a.11.11,0,0,1-.16,0,.13.13,0,0,1-.06-.2,0,0,0,0,1,0,0h0L67,5.4a.35.35,0,0,1,.25-.14.38.38,0,0,1,.28,0,.37.37,0,0,1,.19.2.58.58,0,0,1,0,.26Zm-.92.17L64,8.46l2.28,1.2Z"/><path class="cls-2" d="M75.67,10.62a2.26,2.26,0,0,1,.59.72,2.3,2.3,0,0,1,.26.87,2.34,2.34,0,0,1-.09.91A2.23,2.23,0,0,1,76,14a2.26,2.26,0,0,1-.72.59,2.51,2.51,0,0,1-.87.27,2.3,2.3,0,0,1-.9-.08,2.15,2.15,0,0,1-.83-.44l-1.29-1-.94,1.15-.28.34a.4.4,0,0,1-.29.15.41.41,0,0,1-.33-.1.44.44,0,0,1-.16-.29.41.41,0,0,1,.1-.32l3.93-4.82A.45.45,0,0,1,74,9.28Zm-2.81,3.44a1,1,0,0,0,.54.23,1.57,1.57,0,0,0,.64,0,2,2,0,0,0,.66-.3,2.84,2.84,0,0,0,.61-.55,3.61,3.61,0,0,0,.42-.7A2.5,2.5,0,0,0,75.9,12a1.68,1.68,0,0,0-.09-.64,1.15,1.15,0,0,0-.33-.48l-1.29-1-.1.11L71.57,13Z"/><path class="cls-2" d="M80.74,15.44a.4.4,0,0,1,.29.15h0l2.28,2.72a.13.13,0,0,1,0,.21.14.14,0,0,1-.22,0l-2-2.38-.11.1-2.26,1.9L80.28,20c.06.07,0,.13,0,.2s-.14.06-.2,0l-1.56-1.86-2.27,1.91-.1.09,2,2.37a.14.14,0,0,1,0,.22.14.14,0,0,1-.21,0L75.6,20.16a.39.39,0,0,1-.1-.31.44.44,0,0,1,.15-.3l2.27-1.9.23-.2,2.26-1.9A.46.46,0,0,1,80.74,15.44Z"/><path class="cls-2" d="M82,29a.13.13,0,0,1-.2-.06l-1.47-2.56-.14-.24L80.15,26h0a.42.42,0,0,1,0-.33.43.43,0,0,1,.2-.27l5.39-3.09a.41.41,0,0,1,.34-.05.43.43,0,0,1,.27.2.43.43,0,0,1-.17.61l-4.77,2.75-.62.35-.12.07,1.48,2.56A.14.14,0,0,1,82,29Z"/></g></g></svg>