<svg xmlns="http://www.w3.org/2000/svg" viewBox="0 0 350 368.86"><defs><style>.cls-1{fill:#d9a421;}</style></defs><g id="Capa_2" data-name="Capa 2"><g id="Capa_1-2" data-name="Capa 1"><path class="cls-1" d="M9,98.08l5.18,1.19v2.89q0,14.34,7.72,23.3a24.88,24.88,0,0,0,19.76,9q14,0,23.25-8.71a28.94,28.94,0,0,0,9.21-21.95,24.39,24.39,0,0,0-1.34-8.17,19,19,0,0,0-4-6.67q-4.17-4.68-14.93-10.56-4.19-2.28-6.27-3.48Q34.64,66.81,28.87,58.25A33.84,33.84,0,0,1,23.1,38.93q0-16.32,10.75-27.63A35.14,35.14,0,0,1,60.34,0,35.11,35.11,0,0,1,73,2.33a54.36,54.36,0,0,1,12.84,7.4L94,3.48h3.68L89.51,37.74l-5-.79c.13-1.26.21-2.11.25-2.58s0-.89,0-1.28q0-13.17-6.82-20.59T59.15,5.08A25.75,25.75,0,0,0,41,11.87a21.74,21.74,0,0,0-7.36,16.61,18.13,18.13,0,0,0,4.73,12.4q4.72,5.35,19.76,13.59Q76.87,64.63,82.8,72.79T88.72,93.2A44.8,44.8,0,0,1,75.28,126Q61.84,139.51,42.22,139.5a39.82,39.82,0,0,1-14.74-2.59,38.21,38.21,0,0,1-12.34-8.06L4.28,136.42H0Z"/><path class="cls-1" d="M153.24,124.67a34.89,34.89,0,0,1-11.1,10.25,27.14,27.14,0,0,1-13.59,3.59,22.8,22.8,0,0,1-18.07-8.12q-7-8.11-7-20.86a44.13,44.13,0,0,1,3.93-17.92A68.08,68.08,0,0,1,119,74a60.57,60.57,0,0,1,15.53-12.84,32.46,32.46,0,0,1,15.84-4.48q7.37,0,11.84,3.28t6.08,10l3.48-11.35H186l-15.63,54q-1.89,6.67-2.59,9.71a22.82,22.82,0,0,0-.7,4.63,4.54,4.54,0,0,0,1,3,3.3,3.3,0,0,0,2.64,1.25q4.88,0,10.15-6.32t9.66-17.58l4.28,1.49q-5.28,14.44-12.79,22.11t-16.38,7.67q-6.27,0-9.31-3.44T153.24,124.67Zm-1.69-63.73A16.36,16.36,0,0,0,141,64.82q-4.77,3.89-9.75,12.65A106.8,106.8,0,0,0,122,99.12q-3.44,11.41-3.44,19.57,0,7.17,3.24,10.9t9.41,3.74A19.33,19.33,0,0,0,143.49,129q5.47-4.34,9.95-13.4a74,74,0,0,0,3.78-9.6q2.21-6.52,4.39-14.69a89.71,89.71,0,0,0,1.94-9,47.72,47.72,0,0,0,.65-7.22q0-7.06-3.14-10.61T151.55,60.94Z"/><path class="cls-1" d="M200.94,87.72,197.45,86q8.37-16.43,14.94-22.9t14.44-6.47c3.58,0,6.32.79,8.21,2.39a8.36,8.36,0,0,1,2.84,6.77,25.44,25.44,0,0,1-.4,4.33,38.52,38.52,0,0,1-1.19,4.93L223,119.29q-.81,3.18-1.2,5a15.09,15.09,0,0,0-.4,2.94,5.71,5.71,0,0,0,1.79,4.48,7.57,7.57,0,0,0,5.18,1.59q5.28,0,11.15-3.93a48.7,48.7,0,0,0,11.45-11.31,85.45,85.45,0,0,0,11.6-21.55q4.74-12.5,4.74-19.67a7.71,7.71,0,0,0-.65-3.34,3.22,3.22,0,0,0-1.84-1.74,17.22,17.22,0,0,1-6-3.63,6.56,6.56,0,0,1-2-4.73,6.35,6.35,0,0,1,1.84-4.78,6.75,6.75,0,0,1,4.93-1.79,7.58,7.58,0,0,1,6.77,3.73q2.39,3.73,2.39,10.6,0,11-5,25a94.16,94.16,0,0,1-12.94,24.84,45.66,45.66,0,0,1-13.74,12.85,30.56,30.56,0,0,1-15.64,4.58q-8.46,0-12.79-3.84t-4.33-11.3a23.35,23.35,0,0,1,.25-3.28,35,35,0,0,1,.74-3.79l12.85-42.82c.13-.46.33-1.09.59-1.89a10.7,10.7,0,0,0,.5-1.69c0-.06.07-.55.2-1.44a16.77,16.77,0,0,0,.2-2.34,3.86,3.86,0,0,0-.65-2.49,2.48,2.48,0,0,0-2-.8q-3.67,0-8.81,6.37T200.94,87.72Z"/><path class="cls-1" d="M300,97.48q-1.49,5.58-2.24,10a47.81,47.81,0,0,0-.74,7.92q0,8.85,4.33,13.49T314,133.53a23.79,23.79,0,0,0,14.54-5.18A40.37,40.37,0,0,0,340,113.81l4.28,2.39a42.49,42.49,0,0,1-13.54,16.58,31,31,0,0,1-18.32,5.93q-13.33,0-21.86-9t-8.51-23.45a43.45,43.45,0,0,1,3-15.78,53.06,53.06,0,0,1,8.86-14.78,56.55,56.55,0,0,1,17.22-14.34,42,42,0,0,1,19.72-4.88q8.56,0,13.84,4.48A14.56,14.56,0,0,1,350,72.59q0,11.35-12.95,18.12t-35.14,6.77Zm1.69-4.88h2q14.73,0,23.1-5.92a18.87,18.87,0,0,0,8.36-16.28q0-4.68-2.34-7t-6.92-2.29q-6.67,0-12.79,7.91T301.7,92.6Z"/><path class="cls-1" d="M206.71,212.2a1,1,0,0,1,.8-.13,1,1,0,0,1,.66.47,1,1,0,0,1,.1.83,96,96,0,0,1-4.59,14c-.58,1.33-1.13,2.53-1.66,3.59-.23.54-.49,1.09-.77,1.67a24.2,24.2,0,0,1-1.23,2.1,17.91,17.91,0,0,1-1.64,2.16,8.46,8.46,0,0,1-2,1.63,4.26,4.26,0,0,1-2.26.7,6.07,6.07,0,0,1-5.13-2.63,11.46,11.46,0,0,1-1.93-7,101.47,101.47,0,0,1,1.33-11.52,107,107,0,0,0,1.47-12.38c0-1.82-.58-2.73-1.73-2.73a3.38,3.38,0,0,0-2.2,1.4q-2.86,3.2-5.07,10.45a35.39,35.39,0,0,0-1.66,10.45v.27a1.37,1.37,0,0,0,.07.47,3.06,3.06,0,0,1-.27,2,4.24,4.24,0,0,1-1.3,1.6,5.22,5.22,0,0,1-1.83.9,4.84,4.84,0,0,1-1.06.13,3.43,3.43,0,0,1-1.2-.2,3.54,3.54,0,0,1-1.8-1.46,5,5,0,0,1-.53-1.2,51.18,51.18,0,0,1-1.47-7.59q-1.72,6.59-3.39,11.12Q162.13,243,157.34,243a8,8,0,0,1-6.07-2.73Q144.35,233,146,204.51c.17-2.84.4-6.3.66-10.38-2.44.26-4.9.49-7.39.66h-.13q-6.85.47-13.52.47-5.52,0-8.66-2.6a6.38,6.38,0,0,1-2.59-4.93,5,5,0,0,1,1.6-3.46q3.12-3.06,9.45-3a2.75,2.75,0,0,1,2.66,1.6,4.32,4.32,0,0,1,.47,2.33,3.83,3.83,0,0,1-.73,2.2,2,2,0,0,1-2.06,1,4.55,4.55,0,0,1-.67-.07q-5.53-.86-7-.53,1,2.4,6.59,3.73a55.51,55.51,0,0,0,14.38,1.13c2.62-.18,5.19-.4,7.73-.66a1,1,0,0,1,0-.2,1.12,1.12,0,0,0,0-.24v-.23q1.06-15.78,1.07-21.44a3.29,3.29,0,0,1,1.93-3,5.69,5.69,0,0,1,3.06-.66,5.52,5.52,0,0,1,3,.93,3.37,3.37,0,0,1,1.66,3.2c0,.17,0,.61-.1,1.29s-.12,1.26-.16,1.7q-.87,10.92-1.34,17.45c4.09-.67,7.81-1.45,11.19-2.33,1.42-.36,2.75-.74,4-1.14q2.33-11,6.39-16.38c2.39-3.19,5.15-4.79,8.25-4.79a5,5,0,0,1,2.07.43,4.58,4.58,0,0,1,1.6,1.24,5.76,5.76,0,0,1,1,2,11,11,0,0,1,.43,2.73V173q0,6.12-6.86,10.79a27.27,27.27,0,0,1-3.39,2,92.46,92.46,0,0,0-1.8,10.26,115.25,115.25,0,0,0-.8,21.1c.31-1.33.69-2.66,1.13-4v-.07q2.4-7.72,6-11.72,2.94-3.25,6.13-3.26a6.66,6.66,0,0,1,4.66,1.57,6.83,6.83,0,0,1,2.2,3.76,20,20,0,0,1,.37,3.59,35,35,0,0,1-.31,4.77q-.33,2.76-.63,4.59t-.9,5.23c-.75,4.35-1.2,7.39-1.33,9.12-.22,2.53-.09,4.08.4,4.66a.4.4,0,0,0,.33.2.58.58,0,0,0,.2,0,1.64,1.64,0,0,0,.5-.33,5.36,5.36,0,0,0,.8-.83,14.29,14.29,0,0,0,1.1-1.63c.44-.73.91-1.61,1.4-2.63v-.07c.53-1.06,1.07-2.22,1.6-3.46a97.63,97.63,0,0,0,4.53-13.78A.88.88,0,0,1,206.71,212.2Zm-39.39,9.43c.58-2.18,1.22-4.8,1.94-7.86a105.43,105.43,0,0,1,.33-15.45q.39-4.53,1.13-8.65l-3,.86c-3.59.89-7.55,1.69-11.85,2.4q-.47,6.72-.8,12.65-.4,8.46-.2,15a71.07,71.07,0,0,0,1,10.82c.56,2.86,1.3,4.78,2.24,5.76a1.77,1.77,0,0,0,1.33.67.93.93,0,0,0,.29-.07,2.66,2.66,0,0,0,.61-.43,8.6,8.6,0,0,0,.93-1,14.58,14.58,0,0,0,1.19-1.9,30.53,30.53,0,0,0,1.44-3,82,82,0,0,0,3.13-9.12c.09-.22.15-.37.2-.46A.53.53,0,0,1,167.32,221.63Zm21.38-50.48a1.54,1.54,0,0,0-.4-.73,3.35,3.35,0,0,0-2.4,1.6q-2.53,3.14-4.6,11,7.6-4.4,7.6-10A8,8,0,0,0,188.7,171.15Z"/><path class="cls-1" d="M235.07,212.2a.9.9,0,0,1,.3,1.44,61.67,61.67,0,0,1-7.39,9.52q-7.12,7.59-13.18,7.59a8.5,8.5,0,0,1-7.13-3.66,14,14,0,0,1-2.59-8,27,27,0,0,1,.4-6.63,24.63,24.63,0,0,1,1.86-5.93,18.12,18.12,0,0,1,3.13-4.69,11.16,11.16,0,0,1,8.26-3.73q4.65,0,5.79,3.53a7.72,7.72,0,0,1,.2.93q.6,4.33-3.33,10.26a19.43,19.43,0,0,1-5.86,6.12l-.27.14-.33.13-.26.13a.19.19,0,0,1-.14.07l-.07.07h-.06a12.4,12.4,0,0,0,1.33,5.06,3.06,3.06,0,0,0,2.6,1.86q3.33,0,7.12-3.66l.07-.07a60.79,60.79,0,0,0,8.12-10.19A.92.92,0,0,1,235.07,212.2Zm-16.21-8.49a15.93,15.93,0,0,0-3.2,5.8,25.25,25.25,0,0,0-1.33,7.65c1.87-1.06,3.66-3.1,5.4-6.12a27.65,27.65,0,0,0,2.19-4.83,8,8,0,0,0,.6-3.63.81.81,0,0,0-.06-.33q-.08-.27-.27-.27A4.74,4.74,0,0,0,218.86,203.71Z"/><path class="cls-1" d="M62.33,354.91a35.4,35.4,0,0,1-11.25,10.26,27.27,27.27,0,0,1-13.44,3.49,24.14,24.14,0,0,1-18.52-8.27q-7.58-8.26-7.57-20.51a45.15,45.15,0,0,1,3.74-17.52A67.56,67.56,0,0,1,26,305a57.86,57.86,0,0,1,15.93-13.74,34.32,34.32,0,0,1,16.93-4.68q6.67,0,10.85,2.44a15.8,15.8,0,0,1,6.47,7.62L92.7,238.12H76.37V233q8.76,0,17-.5t15.83-1.29L75.37,351.73a3.81,3.81,0,0,0-.19.5,13.14,13.14,0,0,0-.8,4,4.7,4.7,0,0,0,1.39,3.48,5,5,0,0,0,3.69,1.4q5,0,10.55-6.72t9.86-18.17l4.68,1.79q-5.58,15-13,22.85t-16.19,7.82q-6.27,0-9.65-3.29T62.33,356Zm-2.49-64.22a18.09,18.09,0,0,0-11.25,3.88q-5.09,3.89-9.36,11.85a83.82,83.82,0,0,0-3.78,8.72q-1.89,5-3.49,10.9-2.38,8.26-3.53,13.84a46.5,46.5,0,0,0-1.15,9q0,7.17,3.29,10.9t9.76,3.74A19.59,19.59,0,0,0,53.82,358q6-5.47,10.11-16.13A136.39,136.39,0,0,0,70.2,321q2.49-11.29,2.49-17.08,0-6.46-3.24-9.85T59.84,290.69Z"/><path class="cls-1" d="M163.7,354.82a35,35,0,0,1-11.1,10.25,27.15,27.15,0,0,1-13.6,3.59,22.81,22.81,0,0,1-18.07-8.12q-7-8.12-7-20.86a44.3,44.3,0,0,1,3.93-17.92,68.13,68.13,0,0,1,11.61-17.63A60.24,60.24,0,0,1,145,291.29a32.43,32.43,0,0,1,15.83-4.48q7.37,0,11.85,3.28t6.08,10l3.48-11.35h14.24l-15.64,54q-1.89,6.68-2.58,9.71a22.21,22.21,0,0,0-.7,4.63,4.59,4.59,0,0,0,1,3,3.29,3.29,0,0,0,2.64,1.25q4.89,0,10.16-6.32T201,337.39l4.28,1.5Q200,353.32,192.53,361t-16.38,7.67q-6.28,0-9.32-3.44T163.7,354.82ZM162,291.09A16.36,16.36,0,0,0,151.45,295q-4.77,3.88-9.76,12.65a106.8,106.8,0,0,0-9.21,21.65q-3.43,11.42-3.43,19.57,0,7.17,3.23,10.9t9.41,3.74a19.29,19.29,0,0,0,12.25-4.33q5.48-4.33,10-13.4a74,74,0,0,0,3.78-9.6q2.19-6.52,4.38-14.69a87,87,0,0,0,1.94-9,46.45,46.45,0,0,0,.65-7.22q0-7.07-3.13-10.61T162,291.09Z"/><path class="cls-1" d="M215.08,348,230.81,293H217.37V288.7H232l6-21.61h14.64l-5.88,21.61h14.84V293H245.25l-16.73,59.75a13,13,0,0,0-.6,2.29,12.79,12.79,0,0,0-.2,2,3.26,3.26,0,0,0,1.2,2.73,5.45,5.45,0,0,0,3.48.95q4.78,0,10.16-6.17t11.65-18.72l4.08,1.79q-7.06,15.63-14.78,23.35t-16.38,7.72a14.76,14.76,0,0,1-9.86-3.19,10.3,10.3,0,0,1-3.79-8.26,23.53,23.53,0,0,1,.4-3.94Q214.29,351,215.08,348Z"/><path class="cls-1" d="M288.46,327.63q-1.48,5.58-2.24,10a47.91,47.91,0,0,0-.74,7.92q0,8.87,4.33,13.49t12.59,4.63a23.79,23.79,0,0,0,14.54-5.18A40.37,40.37,0,0,0,328.49,344l4.28,2.39a42.49,42.49,0,0,1-13.54,16.58,31,31,0,0,1-18.32,5.93q-13.35,0-21.86-9t-8.51-23.45a43.45,43.45,0,0,1,3-15.78,53.06,53.06,0,0,1,8.86-14.78,56.43,56.43,0,0,1,17.22-14.34,42.14,42.14,0,0,1,19.72-4.88q8.57,0,13.84,4.48a14.56,14.56,0,0,1,5.28,11.65q0,11.36-12.95,18.12t-35.14,6.77Zm1.69-4.88h2q14.73,0,23.1-5.92a18.9,18.9,0,0,0,8.36-16.28q0-4.68-2.34-7t-6.92-2.29q-6.68,0-12.79,7.91T290.15,322.75Z"/></g></g></svg>